<svg width="23" height="30" viewBox="0 0 23 30" fill="none" xmlns="http://www.w3.org/2000/svg">
<path d="M19.6875 30H2.8125C1.2625 30 0 28.7388 0 27.1875V14.0625C0 12.5113 1.2625 11.25 2.8125 11.25H19.6875C21.2375 11.25 22.5 12.5113 22.5 14.0625V27.1875C22.5 28.7388 21.2375 30 19.6875 30ZM2.8125 13.125C2.29625 13.125 1.875 13.545 1.875 14.0625V27.1875C1.875 27.705 2.29625 28.125 2.8125 28.125H19.6875C20.2038 28.125 20.625 27.705 20.625 27.1875V14.0625C20.625 13.545 20.2038 13.125 19.6875 13.125H2.8125Z" fill="white"/>
<path d="M17.8125 13.125C17.295 13.125 16.875 12.705 16.875 12.1875V7.5C16.875 4.39875 14.3513 1.875 11.25 1.875C8.14875 1.875 5.625 4.39875 5.625 7.5V12.1875C5.625 12.705 5.205 13.125 4.6875 13.125C4.17 13.125 3.75 12.705 3.75 12.1875V7.5C3.75 3.36375 7.11375 0 11.25 0C15.3863 0 18.75 3.36375 18.75 7.5V12.1875C18.75 12.705 18.33 13.125 17.8125 13.125Z" fill="white"/>
<path d="M11.25 21.25C9.87125 21.25 8.75 20.1288 8.75 18.75C8.75 17.3713 9.87125 16.25 11.25 16.25C12.6287 16.25 13.75 17.3713 13.75 18.75C13.75 20.1288 12.6287 21.25 11.25 21.25ZM11.25 18.125C10.9062 18.125 10.625 18.405 10.625 18.75C10.625 19.095 10.9062 19.375 11.25 19.375C11.5938 19.375 11.875 19.095 11.875 18.75C11.875 18.405 11.5938 18.125 11.25 18.125Z" fill="white"/>
<path d="M11.25 25C10.7325 25 10.3125 24.58 10.3125 24.0625V20.625C10.3125 20.1075 10.7325 19.6875 11.25 19.6875C11.7675 19.6875 12.1875 20.1075 12.1875 20.625V24.0625C12.1875 24.58 11.7675 25 11.25 25Z" fill="white"/>
</svg>
