<svg width="30" height="30" viewBox="0 0 30 30" fill="none" xmlns="http://www.w3.org/2000/svg">
<path d="M28.242 1.75816C27.1082 0.624375 25.6009 0 23.9976 0C22.3943 0 20.887 0.624375 19.7532 1.75811L2.97807 18.5333C2.83533 18.676 2.73185 18.8532 2.67777 19.0477L0.042926 28.5139C-0.0706874 28.9222 0.0449767 29.36 0.345446 29.6589C0.568102 29.8804 0.866462 30 1.17197 30C1.27879 30 1.38648 29.9854 1.49207 29.9554L10.9583 27.2664C11.3577 27.153 11.6673 26.8366 11.7721 26.4349C11.8768 26.0331 11.7612 25.6059 11.468 25.3118L5.50012 19.3258L16.0604 8.76557L21.2272 13.9324L13.9318 21.2079C13.4735 21.6649 13.4724 22.4069 13.9295 22.8652C14.3865 23.3235 15.1285 23.3244 15.5867 22.8674L28.2419 10.2468C29.3756 9.11309 30 7.60576 30 6.00246C30 4.39916 29.3756 2.89178 28.242 1.75816ZM8.40203 25.5561L2.86094 27.1301L4.41279 21.5548L8.40203 25.5561ZM22.8867 12.2774L17.7176 7.1083L19.4002 5.42572L24.5716 10.5971L22.8867 12.2774ZM26.5857 8.58838L26.2311 8.94211L21.0575 3.76852L21.4106 3.41543C22.1016 2.72432 23.0203 2.34375 23.9976 2.34375C24.9748 2.34375 25.8936 2.72432 26.5847 3.41543C27.2757 4.10643 27.6562 5.02523 27.6562 6.00246C27.6562 6.97975 27.2757 7.89844 26.5857 8.58838Z" fill="#717171"/>
</svg>
