<svg width="24" height="24" viewBox="0 0 24 24" fill="none" xmlns="http://www.w3.org/2000/svg">
<path d="M20.5446 0H2.8125C1.26169 0 0 1.26169 0 2.8125V21.1875C0 22.7383 1.26169 24 2.8125 24H21.1875C22.7383 24 24 22.7383 24 21.1875V3.45544L20.5446 0ZM5.625 1.875H16.4062V7.40625H5.625V1.875ZM18.375 22.125H5.625V14.7188H18.375V22.125ZM22.125 21.1875C22.125 21.7044 21.7044 22.125 21.1875 22.125H20.25V12.8438H3.75V22.125H2.8125C2.29556 22.125 1.875 21.7044 1.875 21.1875V2.8125C1.875 2.29556 2.29556 1.875 2.8125 1.875H3.75V9.28125H18.2812V1.875H19.7679L22.125 4.23206V21.1875Z" fill="white"/>
<path d="M14.7188 2.76562H12.8438V6.46875H14.7188V2.76562Z" fill="white"/>
</svg>
