<svg width="25" height="25" viewBox="0 0 25 25" fill="none" xmlns="http://www.w3.org/2000/svg">
<path d="M18.5911 10.2926C18.5911 10.2926 19.6021 9.52382 18.8325 8.75503C18.0629 7.98625 17.3147 8.97834 17.3147 8.97834L9.57825 16.7165C9.57825 16.7165 7.76629 19.055 6.38857 17.641C5.0125 16.2254 7.31227 14.4505 7.31227 14.4505L17.4565 4.30711C17.4565 4.30711 19.8238 1.69917 22.0494 3.92313C24.2717 6.14791 21.6564 8.5202 21.6564 8.5202L10.2581 19.9185C10.2581 19.9185 6.61105 24.1316 3.23515 20.7549C-0.140761 17.3781 4.11352 13.7723 4.11352 13.7723L12.7671 5.11627C12.7671 5.11627 13.7361 4.30711 13.0102 3.5787C12.281 2.85111 11.4734 3.82178 11.4734 3.82178L1.54348 13.7517C1.54348 13.7517 -2.20487 17.8626 1.98103 22.0477C6.16692 26.2353 10.2803 22.4869 10.2803 22.4869L23.9281 8.83743C23.9281 8.83743 26.6588 5.82573 23.4032 2.56848C20.1476 -0.688768 17.1351 2.04195 17.1351 2.04195L5.39154 13.7839C5.39154 13.7839 2.38396 16.2303 5.11303 18.9577C7.8421 21.6885 10.244 18.6364 10.244 18.6364L18.5911 10.2926Z" fill="#717171"/>
</svg>
