<svg width="25" height="25" viewBox="0 0 25 25" fill="none" xmlns="http://www.w3.org/2000/svg">
<path d="M24.218 11.7188H14.3224C13.8912 11.7188 13.5412 11.3688 13.5412 10.9375C13.5412 10.5062 13.8912 10.1562 14.3224 10.1562H24.218C24.6493 10.1562 24.9992 10.5062 24.9992 10.9375C24.9992 11.3688 24.6493 11.7188 24.218 11.7188Z" fill="white"/>
<path d="M20.3119 15.625C20.1118 15.625 19.9119 15.5489 19.7597 15.3959C19.4546 15.0906 19.4546 14.5958 19.7597 14.2906L23.1139 10.9365L19.7597 7.58228C19.4546 7.27711 19.4546 6.78234 19.7597 6.47716C20.0651 6.1718 20.5598 6.1718 20.865 6.47716L24.7711 10.3834C25.0763 10.6886 25.0763 11.1834 24.7711 11.4885L20.865 15.3948C20.7118 15.5489 20.512 15.625 20.3119 15.625Z" fill="white"/>
<path d="M8.33314 25C8.11018 25 7.89866 24.9687 7.68733 24.9031L1.41864 22.8146C0.565702 22.5166 0 21.7218 0 20.8334V2.0834C0 0.93441 0.934382 0 2.08333 0C2.30611 0 2.51762 0.0312805 2.72914 0.0968933L8.99764 2.18544C9.85077 2.48337 10.4163 3.27816 10.4163 4.1666V22.9166C10.4163 24.0656 9.48209 25 8.33314 25ZM2.08333 1.5625C1.79686 1.5625 1.56245 1.79691 1.56245 2.0834V20.8334C1.56245 21.0552 1.71141 21.2614 1.92388 21.3354L8.1632 23.4146C8.20802 23.4291 8.26639 23.4375 8.33314 23.4375C8.61962 23.4375 8.85383 23.2031 8.85383 22.9166V4.1666C8.85383 3.94478 8.70487 3.73859 8.4924 3.66459L2.25308 1.58539C2.20826 1.57089 2.1499 1.5625 2.08333 1.5625Z" fill="white"/>
<path d="M15.8849 8.3334C15.4536 8.3334 15.1036 7.9834 15.1036 7.55215V2.86465C15.1036 2.14691 14.5194 1.5625 13.8017 1.5625H2.08333C1.6521 1.5625 1.30211 1.2125 1.30211 0.78125C1.30211 0.349999 1.6521 0 2.08333 0H13.8017C15.3819 0 16.6661 1.28441 16.6661 2.86465V7.55215C16.6661 7.9834 16.3161 8.3334 15.8849 8.3334Z" fill="white"/>
<path d="M13.8017 21.875H9.63506C9.20382 21.875 8.85383 21.525 8.85383 21.0938C8.85383 20.6625 9.20382 20.3125 9.63506 20.3125H13.8017C14.5194 20.3125 15.1036 19.7281 15.1036 19.0104V14.3229C15.1036 13.8916 15.4536 13.5416 15.8849 13.5416C16.3161 13.5416 16.6661 13.8916 16.6661 14.3229V19.0104C16.6661 20.5906 15.3819 21.875 13.8017 21.875Z" fill="white"/>
</svg>
