<svg width="28" height="19" viewBox="0 0 28 19" fill="none" xmlns="http://www.w3.org/2000/svg">
<path d="M14 4.75C11.5139 4.75 9.4939 6.87931 9.4939 9.5C9.4939 12.1207 11.5139 14.25 14 14.25C16.4861 14.25 18.5061 12.1207 18.5061 9.5C18.5061 6.87931 16.4861 4.75 14 4.75Z" fill="#BABABA"/>
<path d="M27.6737 8.51724C26.1509 6.51897 20.7125 0 14 0C7.28746 0 1.84906 6.51897 0.326304 8.51724C-0.108768 9.07414 -0.108768 9.8931 0.326304 10.4828C1.84906 12.481 7.28746 19 14 19C20.7125 19 26.1509 12.481 27.6737 10.4828C28.1088 9.92586 28.1088 9.1069 27.6737 8.51724ZM14 16.3793C10.3951 16.3793 7.47392 13.3 7.47392 9.5C7.47392 5.7 10.3951 2.62069 14 2.62069C17.6049 2.62069 20.5261 5.7 20.5261 9.5C20.5261 13.3 17.6049 16.3793 14 16.3793Z" fill="#BABABA"/>
</svg>
