<svg width="22" height="22" viewBox="0 0 22 22" fill="none" xmlns="http://www.w3.org/2000/svg">
<path d="M3.73336 3.73123L4.36051 4.35838C2.11266 6.61172 2.11266 10.2593 4.36051 12.5126L3.73336 13.1398C1.13895 10.5402 1.13895 6.33086 3.73336 3.73123Z" fill="white"/>
<path d="M2.47909 2.47479C5.76324 -0.818452 11.0953 -0.825881 14.3885 2.45827C17.5662 5.62711 17.7006 10.7311 14.6943 14.0628L15.3374 14.7059C15.857 14.1863 16.6995 14.1862 17.2191 14.7058C17.2192 14.7058 17.219 14.7057 17.2191 14.7058L21.6102 19.0969C22.1298 19.6165 22.1299 20.4589 21.6104 20.9786C21.6103 20.9786 21.6104 20.9785 21.6104 20.9786L20.983 21.6059C20.4634 22.1253 19.6212 22.1253 19.1016 21.6059L14.7107 17.215C14.191 16.6954 14.1909 15.8529 14.7105 15.3333C14.7106 15.3332 14.7105 15.3333 14.7105 15.3333L14.0676 14.69C10.6169 17.8084 5.29172 17.539 2.17333 14.0884C-0.838771 10.7553 -0.704215 5.64474 2.47909 2.47479ZM15.3374 16.5874L19.7283 20.9783C19.9015 21.1514 20.1822 21.1514 20.3554 20.9783L20.9826 20.3507C21.1555 20.1776 21.1555 19.8972 20.9826 19.724L16.5917 15.3331C16.4163 15.1654 16.1399 15.1654 15.9645 15.3331L15.3374 15.9607C15.1645 16.1338 15.1645 16.4142 15.3374 16.5874ZM3.10579 13.7652C6.05037 16.7097 10.8244 16.7096 13.7689 13.7651C16.7134 10.8205 16.7133 6.04641 13.7687 3.10194C10.8242 0.15753 6.05031 0.15753 3.10579 3.10194C0.16604 6.04851 0.16604 10.8186 3.10579 13.7652Z" fill="white"/>
</svg>
