<svg width="30" height="33" viewBox="0 0 30 33" fill="none" xmlns="http://www.w3.org/2000/svg">
<path d="M15 0C10.0374 0 6 3.90335 6 8.70117C6 13.499 10.0374 17.4023 15 17.4023C19.9626 17.4023 24 13.499 24 8.70117C24 3.90335 19.9626 0 15 0ZM15 15.4688C11.1402 15.4688 8 12.4328 8 8.70117C8 4.96953 11.1402 1.93359 15 1.93359C18.8598 1.93359 22 4.96953 22 8.70117C22 12.4328 18.8598 15.4688 15 15.4688Z" fill="white"/>
<path d="M17.7889 19.4004H12.2111C7.5976 19.4004 3.0446 21.4597 0 25.8752V33H30V25.8752C26.9598 21.4661 22.4081 19.4004 17.7889 19.4004ZM28.0001 31.0664H2V26.4668C4.3354 23.2471 8.13013 21.334 12.2111 21.334H17.7889C21.8699 21.334 25.6646 23.2471 28.0001 26.4668V31.0664Z" fill="white"/>
</svg>
