<svg width="25" height="25" viewBox="0 0 25 25" fill="none" xmlns="http://www.w3.org/2000/svg">
<path d="M12.5 0C5.60741 0 0 5.60741 0 12.5C0 19.3926 5.60741 25 12.5 25C19.3926 25 25 19.3926 25 12.5C25 5.60741 19.3926 0 12.5 0ZM12.5 23.5352C6.41518 23.5352 1.46484 18.5848 1.46484 12.5C1.46484 6.41518 6.41518 1.46484 12.5 1.46484C18.5848 1.46484 23.5352 6.41518 23.5352 12.5C23.5352 18.5848 18.5848 23.5352 12.5 23.5352Z" fill="#717171"/>
<path d="M16.1564 9.095C16.6466 8.60481 17.2983 8.33473 17.9916 8.33473C18.6848 8.33473 19.3365 8.60481 19.8273 9.09538C20.1134 9.38129 20.577 9.3811 20.863 9.095C21.1489 8.8089 21.1487 8.34503 20.8626 8.05912C20.0956 7.29237 19.076 6.86989 17.9916 6.86989C16.9071 6.86989 15.8875 7.29237 15.1205 8.05912L15.1201 8.0595C14.834 8.3456 14.8342 8.80909 15.1203 9.09519C15.4064 9.38129 15.8703 9.38091 16.1564 9.095Z" fill="#717171"/>
<path d="M5.17311 9.095C5.66349 8.60481 6.31523 8.33473 7.00836 8.33473C7.70168 8.33473 8.35342 8.60481 8.84418 9.09538C9.13029 9.38129 9.59396 9.3811 9.87988 9.095C10.1658 8.8089 10.1656 8.34503 9.87949 8.05912C9.11255 7.29237 8.09288 6.86989 7.00836 6.86989C5.92403 6.86989 4.90437 7.29237 4.13742 8.05912L4.13704 8.0595C3.85094 8.3456 3.85113 8.80909 4.13723 9.09519C4.42333 9.38129 4.8872 9.38091 5.17311 9.095Z" fill="#717171"/>
<path d="M20.3451 11.8652H4.65488C4.25053 11.8652 3.92246 12.1931 3.92246 12.5977C3.92246 17.3349 7.76272 21.1752 12.5 21.1752C17.2373 21.1752 21.0775 17.3349 21.0775 12.5977C21.0775 12.1931 20.7495 11.8652 20.3451 11.8652ZM12.5 19.7104C8.79154 19.7104 5.78613 16.8896 5.42431 13.3301H19.5757C19.2139 16.8894 16.2088 19.7104 12.5 19.7104Z" fill="#717171"/>
</svg>
