<svg width="201" height="200" viewBox="0 0 201 200" fill="none" xmlns="http://www.w3.org/2000/svg">
<path opacity="0.3" d="M200 99.9982C200 155.227 155.227 200 100.002 200C44.7765 200 0 155.231 0 99.9982C0 44.773 44.773 0 100.002 0C155.231 0 200 44.773 200 99.9982Z" fill="white"/>
<mask id="mask0_175_204" style="mask-type:alpha" maskUnits="userSpaceOnUse" x="0" y="0" width="201" height="200">
<path d="M200.36 99.9518C200.36 155.155 155.608 199.907 100.408 199.907C45.2089 199.907 0.453125 155.159 0.453125 99.9518C0.453125 44.7522 45.2053 0 100.408 0C155.612 0 200.36 44.7522 200.36 99.9518Z" fill="white"/>
</mask>
<g mask="url(#mask0_175_204)">
<path fill-rule="evenodd" clip-rule="evenodd" d="M212.153 202.733C210.743 199.052 208.779 195.656 206.375 192.59C202.535 187.681 197.476 184.239 191.895 181.603C190.278 180.837 188.7 179.91 186.911 179.506C181.354 178.239 175.848 176.754 170.385 175.119C168.435 175.237 166.764 174.547 165.279 173.341C161.222 171.688 156.975 170.497 153.189 168.2C151.865 167.992 150.595 167.667 149.687 166.579C148.996 166.393 148.42 165.939 147.729 165.749C145.758 165.259 144.116 164.26 142.856 162.654C142.098 162.153 141.293 161.709 140.584 161.144C139.679 160.665 139.128 160.042 138.878 158.933C138.545 157.498 138.116 156.078 137.729 154.661C137.207 153.237 137.185 151.724 136.881 150.257C136.706 149.437 136.509 148.722 135.597 148.471C134.72 148.035 133.883 148.453 133.06 148.629C131.375 148.997 130.452 148.468 130.187 146.679C129.997 145.394 129.647 144.099 129.582 142.833C129.446 139.999 129.021 136.993 131.743 134.908C134.917 128.478 137.261 121.744 139.16 114.836C139.593 113.283 140.32 111.97 142.388 111.916C143.626 111.884 144.642 111.007 145.046 109.669C146.266 105.615 147.425 101.537 149.307 97.7118C149.883 94.9211 151.268 92.3307 151.386 89.429C151.357 88.8494 151.515 88.2698 151.461 87.6902C151.397 87.4576 151.289 87.2537 151.128 87.0748C151.021 87.0032 150.914 86.9317 150.821 86.8422C150.878 85.6043 150.971 84.3663 150.928 83.1355C150.864 81.4003 150.034 79.9619 148.341 79.5183C146.778 79.114 146.491 78.2517 146.588 76.8635C146.946 71.4108 147.254 65.951 147.579 60.4911C147.644 60.3051 147.619 60.1297 147.522 59.9795C147.583 59.89 147.59 59.7827 147.518 59.6539C147.357 58.0009 147.218 56.3443 147.025 54.6985C146.585 50.7485 146.159 46.7592 144.084 43.26C140.094 36.5085 134.545 31.3278 127.564 27.7749C121.668 24.7695 115.253 23.274 108.802 21.9859C95.4028 19.2918 83.467 22.2829 73.0554 31.1811C73.0947 31.2669 73.1162 31.36 73.1341 31.4637C71.9498 32.2151 71.0303 33.2133 70.3756 34.4441C69.1233 36.7733 67.3093 38.666 65.4274 40.4299C61.9461 43.6822 60.0462 47.4533 60.608 52.2512C60.4827 52.3085 60.3504 52.3765 60.2215 52.4731C60.0534 52.652 59.9067 52.8523 59.7993 53.0777C58.9621 56.974 60.0176 60.8489 59.9997 64.7345C60.9621 68.0225 60.9765 71.4108 61.2556 74.7812C61.4094 76.6274 60.8906 77.8796 59.1052 78.5093C56.8333 79.3072 55.9245 81.1391 55.624 83.3287C55.3127 85.6257 55.2411 87.9084 55.8708 90.1983C56.7546 93.4041 57.6884 96.5919 58.7188 99.7512C60.3575 102.42 61.3557 105.397 61.9461 108.395C62.3289 110.385 63.1733 111.53 64.905 112.166C66.3397 112.689 67.1197 113.669 67.4345 115.133C67.9462 117.465 68.8156 119.691 69.5276 121.959C70.3577 123.802 71.7209 125.44 71.7316 127.601C71.7531 127.827 71.7996 128.045 71.8926 128.253C75.8426 134.543 77.9571 141.147 75.3631 148.554C74.0179 149.992 72.6869 148.486 71.3488 148.464C70.0106 148.439 68.88 148.317 68.5544 149.967C67.5311 153.18 66.9801 156.525 65.9604 159.745C65.4094 161.502 64.5186 162.783 62.8441 163.627C59.1732 165.481 55.4522 167.173 51.4951 168.293C48.8617 170.157 45.6846 170.729 42.7436 171.813C37.0118 173.928 31.0081 175.13 25.1118 176.712C17.8916 178.644 10.8968 181.051 4.86092 185.667C1.78752 189.431 -2.24832 192.497 -3.75819 197.42C-3.75819 199.513 -3.63654 201.621 -3.79755 203.707C-3.91562 205.331 -3.46123 205.717 -1.8154 205.714C69.3845 205.667 140.584 205.671 211.781 205.671C212.84 204.805 212.575 203.835 212.153 202.733Z" fill="white"/>
</g>
</svg>
