<svg width="25" height="25" viewBox="0 0 25 25" fill="none" xmlns="http://www.w3.org/2000/svg">
<path d="M24.7855 0.21456C24.5783 0.00733297 24.2675 -0.0563878 23.9956 0.0524014L0.460425 9.46638C0.191138 9.5741 0.0108163 9.83054 0.000464763 10.1204C-0.00983796 10.4103 0.151881 10.6789 0.412818 10.8054L9.69347 15.3065L14.1945 24.5872C14.3173 24.8403 14.5736 25 14.8534 25C14.8621 25 14.8708 24.9999 14.8795 24.9995C15.1693 24.9892 15.4259 24.8089 15.5335 24.5396L24.9476 1.0045C25.0564 0.732432 24.9927 0.421738 24.7855 0.21456ZM2.54363 10.2108L21.2265 2.73771L10.0923 13.8719L2.54363 10.2108ZM14.7892 22.4564L11.1281 14.9076L22.2623 3.77345L14.7892 22.4564Z" fill="white"/>
</svg>
