<svg width="0" height="0" class="hidden">
  <symbol xmlns="http://www.w3.org/2000/svg" viewBox="0 0 30 22" id="icon-email">
    <path d="M27.3633 0H2.63672C1.1799 0 0 1.18723 0 2.63672V18.457C0 19.9151 1.18857 21.0938 2.63672 21.0938H27.3633C28.8079 21.0938 30 19.9201 30 18.457V2.63672C30 1.1898 28.8248 0 27.3633 0ZM26.994 1.75781C26.4553 2.29365 17.1846 11.5156 16.8645 11.834C16.3664 12.3321 15.7043 12.6063 15 12.6063C14.2957 12.6063 13.6336 12.332 13.1339 11.8324C12.9186 11.6182 3.75018 2.49809 3.00598 1.75781H26.994ZM1.75781 18.0993V2.99561L9.35379 10.5516L1.75781 18.0993ZM3.00709 19.3359L10.6001 11.7912L11.8926 13.077C12.7226 13.907 13.8262 14.3641 15 14.3641C16.1738 14.3641 17.2774 13.907 18.1058 13.0786L19.3999 11.7912L26.9929 19.3359H3.00709ZM28.2422 18.0993L20.6462 10.5516L28.2422 2.99561V18.0993Z"></path>
  </symbol>
  <symbol xmlns="http://www.w3.org/2000/svg" viewBox="0 0 23 30" id="icon-pass">
    <path d="M19.6875 30H2.8125C1.2625 30 0 28.7388 0 27.1875V14.0625C0 12.5113 1.2625 11.25 2.8125 11.25H19.6875C21.2375 11.25 22.5 12.5113 22.5 14.0625V27.1875C22.5 28.7388 21.2375 30 19.6875 30ZM2.8125 13.125C2.29625 13.125 1.875 13.545 1.875 14.0625V27.1875C1.875 27.705 2.29625 28.125 2.8125 28.125H19.6875C20.2038 28.125 20.625 27.705 20.625 27.1875V14.0625C20.625 13.545 20.2038 13.125 19.6875 13.125H2.8125Z"></path>
    <path d="M17.8125 13.125C17.295 13.125 16.875 12.705 16.875 12.1875V7.5C16.875 4.39875 14.3513 1.875 11.25 1.875C8.14875 1.875 5.625 4.39875 5.625 7.5V12.1875C5.625 12.705 5.205 13.125 4.6875 13.125C4.17 13.125 3.75 12.705 3.75 12.1875V7.5C3.75 3.36375 7.11375 0 11.25 0C15.3863 0 18.75 3.36375 18.75 7.5V12.1875C18.75 12.705 18.33 13.125 17.8125 13.125Z"></path>
    <path d="M11.25 21.25C9.87125 21.25 8.75 20.1288 8.75 18.75C8.75 17.3713 9.87125 16.25 11.25 16.25C12.6287 16.25 13.75 17.3713 13.75 18.75C13.75 20.1288 12.6287 21.25 11.25 21.25ZM11.25 18.125C10.9062 18.125 10.625 18.405 10.625 18.75C10.625 19.095 10.9062 19.375 11.25 19.375C11.5938 19.375 11.875 19.095 11.875 18.75C11.875 18.405 11.5938 18.125 11.25 18.125Z"></path>
    <path d="M11.25 25C10.7325 25 10.3125 24.58 10.3125 24.0625V20.625C10.3125 20.1075 10.7325 19.6875 11.25 19.6875C11.7675 19.6875 12.1875 20.1075 12.1875 20.625V24.0625C12.1875 24.58 11.7675 25 11.25 25Z"></path>
  </symbol>
  <symbol xmlns="http://www.w3.org/2000/svg" viewBox="0 0 28 19" id="icon-show-pass">
    <path d="M14 4.75C11.5139 4.75 9.4939 6.87931 9.4939 9.5C9.4939 12.1207 11.5139 14.25 14 14.25C16.4861 14.25 18.5061 12.1207 18.5061 9.5C18.5061 6.87931 16.4861 4.75 14 4.75Z"></path>
    <path d="M27.6737 8.51724C26.1509 6.51897 20.7125 0 14 0C7.28746 0 1.84906 6.51897 0.326304 8.51724C-0.108768 9.07414 -0.108768 9.8931 0.326304 10.4828C1.84906 12.481 7.28746 19 14 19C20.7125 19 26.1509 12.481 27.6737 10.4828C28.1088 9.92586 28.1088 9.1069 27.6737 8.51724ZM14 16.3793C10.3951 16.3793 7.47392 13.3 7.47392 9.5C7.47392 5.7 10.3951 2.62069 14 2.62069C17.6049 2.62069 20.5261 5.7 20.5261 9.5C20.5261 13.3 17.6049 16.3793 14 16.3793Z"></path>
  </symbol>
  <symbol xmlns="http://www.w3.org/2000/svg" viewBox="0 0 30 33" id="icon-user">
    <path d="M15 0C10.0374 0 6 3.90335 6 8.70117C6 13.499 10.0374 17.4023 15 17.4023C19.9626 17.4023 24 13.499 24 8.70117C24 3.90335 19.9626 0 15 0ZM15 15.4688C11.1402 15.4688 8 12.4328 8 8.70117C8 4.96953 11.1402 1.93359 15 1.93359C18.8598 1.93359 22 4.96953 22 8.70117C22 12.4328 18.8598 15.4688 15 15.4688Z"></path>
    <path d="M17.7889 19.4004H12.2111C7.5976 19.4004 3.0446 21.4597 0 25.8752V33H30V25.8752C26.9598 21.4661 22.4081 19.4004 17.7889 19.4004ZM28.0001 31.0664H2V26.4668C4.3354 23.2471 8.13013 21.334 12.2111 21.334H17.7889C21.8699 21.334 25.6646 23.2471 28.0001 26.4668V31.0664Z"></path>
  </symbol>
</svg>