<svg width="0" height="0" class="hidden">
  <symbol xmlns="http://www.w3.org/2000/svg" viewBox="0 0 30 22" id="icon-email">
    <path d="M27.3633 0H2.63672C1.1799 0 0 1.18723 0 2.63672V18.457C0 19.9151 1.18857 21.0938 2.63672 21.0938H27.3633C28.8079 21.0938 30 19.9201 30 18.457V2.63672C30 1.1898 28.8248 0 27.3633 0ZM26.994 1.75781C26.4553 2.29365 17.1846 11.5156 16.8645 11.834C16.3664 12.3321 15.7043 12.6063 15 12.6063C14.2957 12.6063 13.6336 12.332 13.1339 11.8324C12.9186 11.6182 3.75018 2.49809 3.00598 1.75781H26.994ZM1.75781 18.0993V2.99561L9.35379 10.5516L1.75781 18.0993ZM3.00709 19.3359L10.6001 11.7912L11.8926 13.077C12.7226 13.907 13.8262 14.3641 15 14.3641C16.1738 14.3641 17.2774 13.907 18.1058 13.0786L19.3999 11.7912L26.9929 19.3359H3.00709ZM28.2422 18.0993L20.6462 10.5516L28.2422 2.99561V18.0993Z"></path>
  </symbol>
  <symbol xmlns="http://www.w3.org/2000/svg" viewBox="0 0 23 30" id="icon-pass">
    <path d="M19.6875 30H2.8125C1.2625 30 0 28.7388 0 27.1875V14.0625C0 12.5113 1.2625 11.25 2.8125 11.25H19.6875C21.2375 11.25 22.5 12.5113 22.5 14.0625V27.1875C22.5 28.7388 21.2375 30 19.6875 30ZM2.8125 13.125C2.29625 13.125 1.875 13.545 1.875 14.0625V27.1875C1.875 27.705 2.29625 28.125 2.8125 28.125H19.6875C20.2038 28.125 20.625 27.705 20.625 27.1875V14.0625C20.625 13.545 20.2038 13.125 19.6875 13.125H2.8125Z"></path>
    <path d="M17.8125 13.125C17.295 13.125 16.875 12.705 16.875 12.1875V7.5C16.875 4.39875 14.3513 1.875 11.25 1.875C8.14875 1.875 5.625 4.39875 5.625 7.5V12.1875C5.625 12.705 5.205 13.125 4.6875 13.125C4.17 13.125 3.75 12.705 3.75 12.1875V7.5C3.75 3.36375 7.11375 0 11.25 0C15.3863 0 18.75 3.36375 18.75 7.5V12.1875C18.75 12.705 18.33 13.125 17.8125 13.125Z"></path>
    <path d="M11.25 21.25C9.87125 21.25 8.75 20.1288 8.75 18.75C8.75 17.3713 9.87125 16.25 11.25 16.25C12.6287 16.25 13.75 17.3713 13.75 18.75C13.75 20.1288 12.6287 21.25 11.25 21.25ZM11.25 18.125C10.9062 18.125 10.625 18.405 10.625 18.75C10.625 19.095 10.9062 19.375 11.25 19.375C11.5938 19.375 11.875 19.095 11.875 18.75C11.875 18.405 11.5938 18.125 11.25 18.125Z"></path>
    <path d="M11.25 25C10.7325 25 10.3125 24.58 10.3125 24.0625V20.625C10.3125 20.1075 10.7325 19.6875 11.25 19.6875C11.7675 19.6875 12.1875 20.1075 12.1875 20.625V24.0625C12.1875 24.58 11.7675 25 11.25 25Z"></path>
  </symbol>
  <symbol xmlns="http://www.w3.org/2000/svg" viewBox="0 0 28 19" id="icon-show-pass">
    <path d="M14 4.75C11.5139 4.75 9.4939 6.87931 9.4939 9.5C9.4939 12.1207 11.5139 14.25 14 14.25C16.4861 14.25 18.5061 12.1207 18.5061 9.5C18.5061 6.87931 16.4861 4.75 14 4.75Z"></path>
    <path d="M27.6737 8.51724C26.1509 6.51897 20.7125 0 14 0C7.28746 0 1.84906 6.51897 0.326304 8.51724C-0.108768 9.07414 -0.108768 9.8931 0.326304 10.4828C1.84906 12.481 7.28746 19 14 19C20.7125 19 26.1509 12.481 27.6737 10.4828C28.1088 9.92586 28.1088 9.1069 27.6737 8.51724ZM14 16.3793C10.3951 16.3793 7.47392 13.3 7.47392 9.5C7.47392 5.7 10.3951 2.62069 14 2.62069C17.6049 2.62069 20.5261 5.7 20.5261 9.5C20.5261 13.3 17.6049 16.3793 14 16.3793Z"></path>
  </symbol>
  <symbol xmlns="http://www.w3.org/2000/svg" viewBox="0 0 30 33" id="icon-user">
    <path d="M15 0C10.0374 0 6 3.90335 6 8.70117C6 13.499 10.0374 17.4023 15 17.4023C19.9626 17.4023 24 13.499 24 8.70117C24 3.90335 19.9626 0 15 0ZM15 15.4688C11.1402 15.4688 8 12.4328 8 8.70117C8 4.96953 11.1402 1.93359 15 1.93359C18.8598 1.93359 22 4.96953 22 8.70117C22 12.4328 18.8598 15.4688 15 15.4688Z"></path>
    <path d="M17.7889 19.4004H12.2111C7.5976 19.4004 3.0446 21.4597 0 25.8752V33H30V25.8752C26.9598 21.4661 22.4081 19.4004 17.7889 19.4004ZM28.0001 31.0664H2V26.4668C4.3354 23.2471 8.13013 21.334 12.2111 21.334H17.7889C21.8699 21.334 25.6646 23.2471 28.0001 26.4668V31.0664Z"></path>
  </symbol>
  <symbol xmlns="http://www.w3.org/2000/svg" viewBox="0 0 25 25" id="icon-exit">
    <path d="M24.218 11.7188H14.3224C13.8912 11.7188 13.5412 11.3688 13.5412 10.9375C13.5412 10.5062 13.8912 10.1562 14.3224 10.1562H24.218C24.6493 10.1562 24.9992 10.5062 24.9992 10.9375C24.9992 11.3688 24.6493 11.7188 24.218 11.7188Z"/>
    <path d="M20.3119 15.625C20.1118 15.625 19.9119 15.5489 19.7597 15.3959C19.4546 15.0906 19.4546 14.5958 19.7597 14.2906L23.1139 10.9365L19.7597 7.58228C19.4546 7.27711 19.4546 6.78234 19.7597 6.47716C20.0651 6.1718 20.5598 6.1718 20.865 6.47716L24.7711 10.3834C25.0763 10.6886 25.0763 11.1834 24.7711 11.4885L20.865 15.3948C20.7118 15.5489 20.512 15.625 20.3119 15.625Z"/>
    <path d="M8.33314 25C8.11018 25 7.89866 24.9687 7.68733 24.9031L1.41864 22.8146C0.565702 22.5166 0 21.7218 0 20.8334V2.0834C0 0.93441 0.934382 0 2.08333 0C2.30611 0 2.51762 0.0312805 2.72914 0.0968933L8.99764 2.18544C9.85077 2.48337 10.4163 3.27816 10.4163 4.1666V22.9166C10.4163 24.0656 9.48209 25 8.33314 25ZM2.08333 1.5625C1.79686 1.5625 1.56245 1.79691 1.56245 2.0834V20.8334C1.56245 21.0552 1.71141 21.2614 1.92388 21.3354L8.1632 23.4146C8.20802 23.4291 8.26639 23.4375 8.33314 23.4375C8.61962 23.4375 8.85383 23.2031 8.85383 22.9166V4.1666C8.85383 3.94478 8.70487 3.73859 8.4924 3.66459L2.25308 1.58539C2.20826 1.57089 2.1499 1.5625 2.08333 1.5625Z"/>
    <path d="M15.8849 8.3334C15.4536 8.3334 15.1036 7.9834 15.1036 7.55215V2.86465C15.1036 2.14691 14.5194 1.5625 13.8017 1.5625H2.08333C1.6521 1.5625 1.30211 1.2125 1.30211 0.78125C1.30211 0.349999 1.6521 0 2.08333 0H13.8017C15.3819 0 16.6661 1.28441 16.6661 2.86465V7.55215C16.6661 7.9834 16.3161 8.3334 15.8849 8.3334Z"/>
    <path d="M13.8017 21.875H9.63506C9.20382 21.875 8.85383 21.525 8.85383 21.0938C8.85383 20.6625 9.20382 20.3125 9.63506 20.3125H13.8017C14.5194 20.3125 15.1036 19.7281 15.1036 19.0104V14.3229C15.1036 13.8916 15.4536 13.5416 15.8849 13.5416C16.3161 13.5416 16.6661 13.8916 16.6661 14.3229V19.0104C16.6661 20.5906 15.3819 21.875 13.8017 21.875Z"/>
  </symbol>
  <symbol xmlns="http://www.w3.org/2000/svg" viewBox="0 0 22 22" id="icon-search">
    <path d="M3.73336 3.73123L4.36051 4.35838C2.11266 6.61172 2.11266 10.2593 4.36051 12.5126L3.73336 13.1398C1.13895 10.5402 1.13895 6.33086 3.73336 3.73123Z"/>
    <path d="M2.47909 2.47479C5.76324 -0.818452 11.0953 -0.825881 14.3885 2.45827C17.5662 5.62711 17.7006 10.7311 14.6943 14.0628L15.3374 14.7059C15.857 14.1863 16.6995 14.1862 17.2191 14.7058C17.2192 14.7058 17.219 14.7057 17.2191 14.7058L21.6102 19.0969C22.1298 19.6165 22.1299 20.4589 21.6104 20.9786C21.6103 20.9786 21.6104 20.9785 21.6104 20.9786L20.983 21.6059C20.4634 22.1253 19.6212 22.1253 19.1016 21.6059L14.7107 17.215C14.191 16.6954 14.1909 15.8529 14.7105 15.3333C14.7106 15.3332 14.7105 15.3333 14.7105 15.3333L14.0676 14.69C10.6169 17.8084 5.29172 17.539 2.17333 14.0884C-0.838771 10.7553 -0.704215 5.64474 2.47909 2.47479ZM15.3374 16.5874L19.7283 20.9783C19.9015 21.1514 20.1822 21.1514 20.3554 20.9783L20.9826 20.3507C21.1555 20.1776 21.1555 19.8972 20.9826 19.724L16.5917 15.3331C16.4163 15.1654 16.1399 15.1654 15.9645 15.3331L15.3374 15.9607C15.1645 16.1338 15.1645 16.4142 15.3374 16.5874ZM3.10579 13.7652C6.05037 16.7097 10.8244 16.7096 13.7689 13.7651C16.7134 10.8205 16.7133 6.04641 13.7687 3.10194C10.8242 0.15753 6.05031 0.15753 3.10579 3.10194C0.16604 6.04851 0.16604 10.8186 3.10579 13.7652Z"/>
  </symbol>
  <symbol xmlns="http://www.w3.org/2000/svg" viewBox="0 0 24 24" id="icon-settings">
    <path d="M13.12 24H10.88C10.123 24 9.484 23.433 9.394 22.68L9.155 20.804C8.678 20.649 8.218 20.458 7.781 20.235L6.287 21.396C5.681 21.865 4.828 21.811 4.302 21.27L2.727 19.695C2.19 19.174 2.136 18.321 2.605 17.716L3.766 16.221C3.542 15.784 3.351 15.324 3.197 14.847L1.317 14.608C0.567 14.516 0 13.877 0 13.12V10.88C0 10.123 0.567 9.484 1.32 9.394L3.196 9.155C3.351 8.678 3.542 8.218 3.765 7.781L2.605 6.287C2.135 5.681 2.19 4.827 2.732 4.301L4.307 2.726C4.828 2.189 5.682 2.136 6.286 2.604L7.78 3.766C8.217 3.543 8.677 3.352 9.155 3.197L9.394 1.317C9.484 0.567 10.123 0 10.88 0H13.12C13.877 0 14.516 0.567 14.606 1.32L14.845 3.196C15.323 3.351 15.783 3.542 16.22 3.765L17.714 2.604C18.321 2.135 19.173 2.189 19.699 2.731L21.274 4.306C21.811 4.827 21.865 5.68 21.396 6.285L20.235 7.78C20.459 8.217 20.65 8.677 20.804 9.154L22.684 9.393C23.433 9.484 24 10.123 24 10.88V13.12C24 13.877 23.433 14.516 22.68 14.606L20.804 14.845C20.649 15.322 20.458 15.782 20.235 16.219L21.396 17.713C21.866 18.319 21.811 19.172 21.269 19.698L19.694 21.273C19.173 21.81 18.319 21.865 17.715 21.395L16.22 20.234C15.783 20.458 15.323 20.649 14.846 20.803L14.607 22.683C14.516 23.433 13.877 24 13.12 24ZM7.73 19.14C7.813 19.14 7.898 19.161 7.974 19.203C8.525 19.511 9.122 19.759 9.748 19.939C9.94 19.994 10.081 20.158 10.106 20.356L10.386 22.556C10.416 22.807 10.633 23 10.88 23H13.12C13.367 23 13.584 22.807 13.613 22.561L13.894 20.357C13.919 20.159 14.06 19.995 14.252 19.94C14.878 19.76 15.475 19.512 16.026 19.204C16.201 19.106 16.419 19.123 16.576 19.246L18.326 20.606C18.527 20.762 18.809 20.749 18.981 20.572L20.566 18.987C20.747 18.811 20.761 18.529 20.605 18.327L19.245 16.577C19.122 16.419 19.105 16.202 19.203 16.027C19.511 15.476 19.759 14.879 19.939 14.253C19.994 14.061 20.158 13.92 20.356 13.895L22.556 13.615C22.807 13.584 23 13.367 23 13.12V10.88C23 10.633 22.807 10.416 22.561 10.387L20.357 10.106C20.159 10.081 19.995 9.94 19.94 9.748C19.76 9.122 19.512 8.525 19.204 7.974C19.106 7.799 19.122 7.582 19.246 7.424L20.606 5.674C20.763 5.472 20.749 5.19 20.573 5.02L18.988 3.435C18.813 3.253 18.53 3.239 18.328 3.396L16.578 4.756C16.419 4.879 16.202 4.896 16.027 4.798C15.478 4.49 14.881 4.243 14.253 4.062C14.061 4.007 13.92 3.843 13.895 3.645L13.615 1.445C13.584 1.193 13.367 1 13.12 1H10.88C10.633 1 10.416 1.193 10.387 1.439L10.106 3.643C10.081 3.841 9.94 4.005 9.748 4.061C9.12 4.241 8.523 4.489 7.974 4.796C7.799 4.895 7.582 4.877 7.423 4.755L5.673 3.395C5.471 3.238 5.19 3.252 5.019 3.428L3.434 5.014C3.253 5.19 3.239 5.472 3.395 5.674L4.755 7.424C4.878 7.582 4.895 7.799 4.797 7.974C4.488 8.525 4.241 9.122 4.061 9.748C4.006 9.94 3.842 10.081 3.644 10.106L1.444 10.386C1.193 10.416 1 10.633 1 10.88V13.12C1 13.367 1.193 13.584 1.439 13.613L3.643 13.894C3.841 13.919 4.005 14.06 4.06 14.252C4.24 14.878 4.488 15.475 4.796 16.026C4.894 16.201 4.878 16.418 4.754 16.576L3.394 18.326C3.237 18.528 3.251 18.81 3.427 18.98L5.012 20.565C5.187 20.746 5.468 20.76 5.672 20.604L7.422 19.244C7.513 19.176 7.621 19.14 7.73 19.14Z"/>
    <path d="M12 17C9.243 17 7 14.757 7 12C7 9.243 9.243 7 12 7C14.757 7 17 9.243 17 12C17 14.757 14.757 17 12 17ZM12 8C9.794 8 8 9.794 8 12C8 14.206 9.794 16 12 16C14.206 16 16 14.206 16 12C16 9.794 14.206 8 12 8Z"/>
  </symbol>
  <symbol xmlns="http://www.w3.org/2000/svg" viewBox="0 0 25 25" id="icon-emoji">
    <path d="M12.5 0C5.60741 0 0 5.60741 0 12.5C0 19.3926 5.60741 25 12.5 25C19.3926 25 25 19.3926 25 12.5C25 5.60741 19.3926 0 12.5 0ZM12.5 23.5352C6.41518 23.5352 1.46484 18.5848 1.46484 12.5C1.46484 6.41518 6.41518 1.46484 12.5 1.46484C18.5848 1.46484 23.5352 6.41518 23.5352 12.5C23.5352 18.5848 18.5848 23.5352 12.5 23.5352Z"/>
    <path d="M16.1564 9.095C16.6466 8.60481 17.2983 8.33473 17.9916 8.33473C18.6848 8.33473 19.3365 8.60481 19.8273 9.09538C20.1134 9.38129 20.577 9.3811 20.863 9.095C21.1489 8.8089 21.1487 8.34503 20.8626 8.05912C20.0956 7.29237 19.076 6.86989 17.9916 6.86989C16.9071 6.86989 15.8875 7.29237 15.1205 8.05912L15.1201 8.0595C14.834 8.3456 14.8342 8.80909 15.1203 9.09519C15.4064 9.38129 15.8703 9.38091 16.1564 9.095Z"/>
    <path d="M5.17311 9.095C5.66349 8.60481 6.31523 8.33473 7.00836 8.33473C7.70168 8.33473 8.35342 8.60481 8.84418 9.09538C9.13029 9.38129 9.59396 9.3811 9.87988 9.095C10.1658 8.8089 10.1656 8.34503 9.87949 8.05912C9.11255 7.29237 8.09288 6.86989 7.00836 6.86989C5.92403 6.86989 4.90437 7.29237 4.13742 8.05912L4.13704 8.0595C3.85094 8.3456 3.85113 8.80909 4.13723 9.09519C4.42333 9.38129 4.8872 9.38091 5.17311 9.095Z"/>
    <path d="M20.3451 11.8652H4.65488C4.25053 11.8652 3.92246 12.1931 3.92246 12.5977C3.92246 17.3349 7.76272 21.1752 12.5 21.1752C17.2373 21.1752 21.0775 17.3349 21.0775 12.5977C21.0775 12.1931 20.7495 11.8652 20.3451 11.8652ZM12.5 19.7104C8.79154 19.7104 5.78613 16.8896 5.42431 13.3301H19.5757C19.2139 16.8894 16.2088 19.7104 12.5 19.7104Z"/>
  </symbol>
  <symbol xmlns="http://www.w3.org/2000/svg" viewBox="0 0 25 25" id="icon-attachment">
    <path d="M18.5911 10.2926C18.5911 10.2926 19.6021 9.52382 18.8325 8.75503C18.0629 7.98625 17.3147 8.97834 17.3147 8.97834L9.57825 16.7165C9.57825 16.7165 7.76629 19.055 6.38857 17.641C5.0125 16.2254 7.31227 14.4505 7.31227 14.4505L17.4565 4.30711C17.4565 4.30711 19.8238 1.69917 22.0494 3.92313C24.2717 6.14791 21.6564 8.5202 21.6564 8.5202L10.2581 19.9185C10.2581 19.9185 6.61105 24.1316 3.23515 20.7549C-0.140761 17.3781 4.11352 13.7723 4.11352 13.7723L12.7671 5.11627C12.7671 5.11627 13.7361 4.30711 13.0102 3.5787C12.281 2.85111 11.4734 3.82178 11.4734 3.82178L1.54348 13.7517C1.54348 13.7517 -2.20487 17.8626 1.98103 22.0477C6.16692 26.2353 10.2803 22.4869 10.2803 22.4869L23.9281 8.83743C23.9281 8.83743 26.6588 5.82573 23.4032 2.56848C20.1476 -0.688768 17.1351 2.04195 17.1351 2.04195L5.39154 13.7839C5.39154 13.7839 2.38396 16.2303 5.11303 18.9577C7.8421 21.6885 10.244 18.6364 10.244 18.6364L18.5911 10.2926Z" />
  </symbol>
  <symbol xmlns="http://www.w3.org/2000/svg" viewBox="0 0 25 25" id="icon-send">
    <path d="M24.7855 0.21456C24.5783 0.00733297 24.2675 -0.0563878 23.9956 0.0524014L0.460425 9.46638C0.191138 9.5741 0.0108163 9.83054 0.000464763 10.1204C-0.00983796 10.4103 0.151881 10.6789 0.412818 10.8054L9.69347 15.3065L14.1945 24.5872C14.3173 24.8403 14.5736 25 14.8534 25C14.8621 25 14.8708 24.9999 14.8795 24.9995C15.1693 24.9892 15.4259 24.8089 15.5335 24.5396L24.9476 1.0045C25.0564 0.732432 24.9927 0.421738 24.7855 0.21456ZM2.54363 10.2108L21.2265 2.73771L10.0923 13.8719L2.54363 10.2108ZM14.7892 22.4564L11.1281 14.9076L22.2623 3.77345L14.7892 22.4564Z" fill="white"/>
  </symbol>
</svg>